<mxfile host="app.diagrams.net" agent="Mozilla/5.0 (Windows NT 10.0; Win64; x64) AppleWebKit/537.36 (KHTML, like Gecko) Chrome/133.0.0.0 Safari/537.36" version="26.0.16">
  <diagram name="Página-1" id="MgcL9HHER_cB7nHOX89X">
    <mxGraphModel dx="880" dy="468" grid="1" gridSize="10" guides="1" tooltips="1" connect="1" arrows="1" fold="1" page="1" pageScale="1" pageWidth="827" pageHeight="1169" math="0" shadow="0">
      <root>
        <mxCell id="0" />
        <mxCell id="1" parent="0" />
        <mxCell id="40a5XBOMVrarQBYRQPIO-3" value="" style="edgeStyle=orthogonalEdgeStyle;rounded=0;orthogonalLoop=1;jettySize=auto;html=1;" edge="1" parent="1" source="40a5XBOMVrarQBYRQPIO-1" target="40a5XBOMVrarQBYRQPIO-2">
          <mxGeometry relative="1" as="geometry" />
        </mxCell>
        <mxCell id="40a5XBOMVrarQBYRQPIO-1" value="Inicio" style="ellipse;whiteSpace=wrap;html=1;aspect=fixed;" vertex="1" parent="1">
          <mxGeometry x="350" y="100" width="80" height="80" as="geometry" />
        </mxCell>
        <mxCell id="40a5XBOMVrarQBYRQPIO-5" value="" style="edgeStyle=orthogonalEdgeStyle;rounded=0;orthogonalLoop=1;jettySize=auto;html=1;" edge="1" parent="1" source="40a5XBOMVrarQBYRQPIO-2" target="40a5XBOMVrarQBYRQPIO-4">
          <mxGeometry relative="1" as="geometry" />
        </mxCell>
        <mxCell id="40a5XBOMVrarQBYRQPIO-2" value="Escucho la alarma" style="rounded=1;whiteSpace=wrap;html=1;" vertex="1" parent="1">
          <mxGeometry x="330" y="270" width="120" height="60" as="geometry" />
        </mxCell>
        <mxCell id="40a5XBOMVrarQBYRQPIO-7" value="" style="edgeStyle=orthogonalEdgeStyle;rounded=0;orthogonalLoop=1;jettySize=auto;html=1;" edge="1" parent="1" source="40a5XBOMVrarQBYRQPIO-4" target="40a5XBOMVrarQBYRQPIO-6">
          <mxGeometry relative="1" as="geometry" />
        </mxCell>
        <mxCell id="40a5XBOMVrarQBYRQPIO-4" value="Me despierto" style="whiteSpace=wrap;html=1;rounded=1;" vertex="1" parent="1">
          <mxGeometry x="330" y="410" width="120" height="60" as="geometry" />
        </mxCell>
        <mxCell id="40a5XBOMVrarQBYRQPIO-9" value="" style="edgeStyle=orthogonalEdgeStyle;rounded=0;orthogonalLoop=1;jettySize=auto;html=1;" edge="1" parent="1" source="40a5XBOMVrarQBYRQPIO-6" target="40a5XBOMVrarQBYRQPIO-8">
          <mxGeometry relative="1" as="geometry" />
        </mxCell>
        <mxCell id="40a5XBOMVrarQBYRQPIO-6" value="Me levanto" style="whiteSpace=wrap;html=1;rounded=1;" vertex="1" parent="1">
          <mxGeometry x="330" y="550" width="120" height="60" as="geometry" />
        </mxCell>
        <mxCell id="40a5XBOMVrarQBYRQPIO-11" value="" style="edgeStyle=orthogonalEdgeStyle;rounded=0;orthogonalLoop=1;jettySize=auto;html=1;" edge="1" parent="1" source="40a5XBOMVrarQBYRQPIO-8" target="40a5XBOMVrarQBYRQPIO-10">
          <mxGeometry relative="1" as="geometry" />
        </mxCell>
        <mxCell id="40a5XBOMVrarQBYRQPIO-8" value="Me siento" style="whiteSpace=wrap;html=1;rounded=1;" vertex="1" parent="1">
          <mxGeometry x="330" y="690" width="120" height="60" as="geometry" />
        </mxCell>
        <mxCell id="40a5XBOMVrarQBYRQPIO-13" value="" style="edgeStyle=orthogonalEdgeStyle;rounded=0;orthogonalLoop=1;jettySize=auto;html=1;" edge="1" parent="1" source="40a5XBOMVrarQBYRQPIO-10" target="40a5XBOMVrarQBYRQPIO-12">
          <mxGeometry relative="1" as="geometry" />
        </mxCell>
        <mxCell id="40a5XBOMVrarQBYRQPIO-10" value="Oro" style="whiteSpace=wrap;html=1;rounded=1;" vertex="1" parent="1">
          <mxGeometry x="330" y="830" width="120" height="70" as="geometry" />
        </mxCell>
        <mxCell id="40a5XBOMVrarQBYRQPIO-15" value="" style="edgeStyle=orthogonalEdgeStyle;rounded=0;orthogonalLoop=1;jettySize=auto;html=1;" edge="1" parent="1" source="40a5XBOMVrarQBYRQPIO-12" target="40a5XBOMVrarQBYRQPIO-14">
          <mxGeometry relative="1" as="geometry" />
        </mxCell>
        <mxCell id="40a5XBOMVrarQBYRQPIO-12" value="Voy al baño" style="whiteSpace=wrap;html=1;rounded=1;" vertex="1" parent="1">
          <mxGeometry x="330" y="985" width="120" height="60" as="geometry" />
        </mxCell>
        <mxCell id="40a5XBOMVrarQBYRQPIO-17" value="" style="edgeStyle=orthogonalEdgeStyle;rounded=0;orthogonalLoop=1;jettySize=auto;html=1;" edge="1" parent="1" source="40a5XBOMVrarQBYRQPIO-14" target="40a5XBOMVrarQBYRQPIO-16">
          <mxGeometry relative="1" as="geometry" />
        </mxCell>
        <mxCell id="40a5XBOMVrarQBYRQPIO-14" value="Voy a la cocina" style="whiteSpace=wrap;html=1;rounded=1;" vertex="1" parent="1">
          <mxGeometry x="330" y="1125" width="120" height="60" as="geometry" />
        </mxCell>
        <mxCell id="40a5XBOMVrarQBYRQPIO-19" value="" style="edgeStyle=orthogonalEdgeStyle;rounded=0;orthogonalLoop=1;jettySize=auto;html=1;" edge="1" parent="1" source="40a5XBOMVrarQBYRQPIO-16" target="40a5XBOMVrarQBYRQPIO-18">
          <mxGeometry relative="1" as="geometry" />
        </mxCell>
        <mxCell id="40a5XBOMVrarQBYRQPIO-16" value="Tomo agua" style="whiteSpace=wrap;html=1;rounded=1;" vertex="1" parent="1">
          <mxGeometry x="330" y="1265" width="120" height="60" as="geometry" />
        </mxCell>
        <mxCell id="40a5XBOMVrarQBYRQPIO-21" value="" style="edgeStyle=orthogonalEdgeStyle;rounded=0;orthogonalLoop=1;jettySize=auto;html=1;" edge="1" parent="1" source="40a5XBOMVrarQBYRQPIO-18" target="40a5XBOMVrarQBYRQPIO-20">
          <mxGeometry relative="1" as="geometry" />
        </mxCell>
        <mxCell id="40a5XBOMVrarQBYRQPIO-18" value="Hago ejercicio" style="whiteSpace=wrap;html=1;rounded=1;" vertex="1" parent="1">
          <mxGeometry x="330" y="1405" width="120" height="60" as="geometry" />
        </mxCell>
        <mxCell id="40a5XBOMVrarQBYRQPIO-23" value="" style="edgeStyle=orthogonalEdgeStyle;rounded=0;orthogonalLoop=1;jettySize=auto;html=1;" edge="1" parent="1" source="40a5XBOMVrarQBYRQPIO-20" target="40a5XBOMVrarQBYRQPIO-22">
          <mxGeometry relative="1" as="geometry" />
        </mxCell>
        <mxCell id="40a5XBOMVrarQBYRQPIO-20" value="Me baño" style="whiteSpace=wrap;html=1;rounded=1;" vertex="1" parent="1">
          <mxGeometry x="330" y="1545" width="120" height="60" as="geometry" />
        </mxCell>
        <mxCell id="40a5XBOMVrarQBYRQPIO-25" value="" style="edgeStyle=orthogonalEdgeStyle;rounded=0;orthogonalLoop=1;jettySize=auto;html=1;" edge="1" parent="1" source="40a5XBOMVrarQBYRQPIO-22" target="40a5XBOMVrarQBYRQPIO-24">
          <mxGeometry relative="1" as="geometry" />
        </mxCell>
        <mxCell id="40a5XBOMVrarQBYRQPIO-22" value="Desayuno" style="whiteSpace=wrap;html=1;rounded=1;" vertex="1" parent="1">
          <mxGeometry x="330" y="1685" width="120" height="60" as="geometry" />
        </mxCell>
        <mxCell id="40a5XBOMVrarQBYRQPIO-27" value="" style="edgeStyle=orthogonalEdgeStyle;rounded=0;orthogonalLoop=1;jettySize=auto;html=1;" edge="1" parent="1" source="40a5XBOMVrarQBYRQPIO-24" target="40a5XBOMVrarQBYRQPIO-26">
          <mxGeometry relative="1" as="geometry" />
        </mxCell>
        <mxCell id="40a5XBOMVrarQBYRQPIO-24" value="Voy a trabajar" style="whiteSpace=wrap;html=1;rounded=1;" vertex="1" parent="1">
          <mxGeometry x="330" y="1825" width="120" height="60" as="geometry" />
        </mxCell>
        <mxCell id="40a5XBOMVrarQBYRQPIO-29" value="" style="edgeStyle=orthogonalEdgeStyle;rounded=0;orthogonalLoop=1;jettySize=auto;html=1;" edge="1" parent="1" source="40a5XBOMVrarQBYRQPIO-26" target="40a5XBOMVrarQBYRQPIO-28">
          <mxGeometry relative="1" as="geometry" />
        </mxCell>
        <mxCell id="40a5XBOMVrarQBYRQPIO-26" value="Trabajo" style="whiteSpace=wrap;html=1;rounded=1;" vertex="1" parent="1">
          <mxGeometry x="330" y="1965" width="120" height="60" as="geometry" />
        </mxCell>
        <mxCell id="40a5XBOMVrarQBYRQPIO-31" value="" style="edgeStyle=orthogonalEdgeStyle;rounded=0;orthogonalLoop=1;jettySize=auto;html=1;" edge="1" parent="1" source="40a5XBOMVrarQBYRQPIO-28" target="40a5XBOMVrarQBYRQPIO-30">
          <mxGeometry relative="1" as="geometry" />
        </mxCell>
        <mxCell id="40a5XBOMVrarQBYRQPIO-28" value="Regreso a casa" style="whiteSpace=wrap;html=1;rounded=1;" vertex="1" parent="1">
          <mxGeometry x="330" y="2105" width="120" height="60" as="geometry" />
        </mxCell>
        <mxCell id="40a5XBOMVrarQBYRQPIO-33" value="" style="edgeStyle=orthogonalEdgeStyle;rounded=0;orthogonalLoop=1;jettySize=auto;html=1;" edge="1" parent="1" source="40a5XBOMVrarQBYRQPIO-30" target="40a5XBOMVrarQBYRQPIO-32">
          <mxGeometry relative="1" as="geometry" />
        </mxCell>
        <mxCell id="40a5XBOMVrarQBYRQPIO-30" value="Preparo el almuerzo" style="whiteSpace=wrap;html=1;rounded=1;" vertex="1" parent="1">
          <mxGeometry x="330" y="2245" width="120" height="60" as="geometry" />
        </mxCell>
        <mxCell id="40a5XBOMVrarQBYRQPIO-35" value="" style="edgeStyle=orthogonalEdgeStyle;rounded=0;orthogonalLoop=1;jettySize=auto;html=1;entryX=0.5;entryY=0;entryDx=0;entryDy=0;" edge="1" parent="1" source="40a5XBOMVrarQBYRQPIO-32" target="40a5XBOMVrarQBYRQPIO-57">
          <mxGeometry relative="1" as="geometry">
            <mxPoint x="390" y="2525" as="targetPoint" />
          </mxGeometry>
        </mxCell>
        <mxCell id="40a5XBOMVrarQBYRQPIO-32" value="Almuerzo" style="whiteSpace=wrap;html=1;rounded=1;" vertex="1" parent="1">
          <mxGeometry x="330" y="2385" width="120" height="60" as="geometry" />
        </mxCell>
        <mxCell id="40a5XBOMVrarQBYRQPIO-39" value="" style="edgeStyle=orthogonalEdgeStyle;rounded=0;orthogonalLoop=1;jettySize=auto;html=1;" edge="1" parent="1" source="40a5XBOMVrarQBYRQPIO-36" target="40a5XBOMVrarQBYRQPIO-38">
          <mxGeometry relative="1" as="geometry" />
        </mxCell>
        <mxCell id="40a5XBOMVrarQBYRQPIO-66" value="Text" style="edgeLabel;html=1;align=center;verticalAlign=middle;resizable=0;points=[];" vertex="1" connectable="0" parent="40a5XBOMVrarQBYRQPIO-39">
          <mxGeometry x="-0.1" y="-2" relative="1" as="geometry">
            <mxPoint as="offset" />
          </mxGeometry>
        </mxCell>
        <mxCell id="40a5XBOMVrarQBYRQPIO-36" value="Me levanto" style="whiteSpace=wrap;html=1;rounded=1;" vertex="1" parent="1">
          <mxGeometry x="330" y="2665" width="120" height="60" as="geometry" />
        </mxCell>
        <mxCell id="40a5XBOMVrarQBYRQPIO-41" value="" style="edgeStyle=orthogonalEdgeStyle;rounded=0;orthogonalLoop=1;jettySize=auto;html=1;" edge="1" parent="1" source="40a5XBOMVrarQBYRQPIO-38" target="40a5XBOMVrarQBYRQPIO-40">
          <mxGeometry relative="1" as="geometry" />
        </mxCell>
        <mxCell id="40a5XBOMVrarQBYRQPIO-38" value="Continuo trabajando" style="whiteSpace=wrap;html=1;rounded=1;" vertex="1" parent="1">
          <mxGeometry x="330" y="2805" width="120" height="60" as="geometry" />
        </mxCell>
        <mxCell id="40a5XBOMVrarQBYRQPIO-43" value="" style="edgeStyle=orthogonalEdgeStyle;rounded=0;orthogonalLoop=1;jettySize=auto;html=1;" edge="1" parent="1" source="40a5XBOMVrarQBYRQPIO-40" target="40a5XBOMVrarQBYRQPIO-42">
          <mxGeometry relative="1" as="geometry" />
        </mxCell>
        <mxCell id="40a5XBOMVrarQBYRQPIO-40" value="Finalizo el trabajo" style="whiteSpace=wrap;html=1;rounded=1;" vertex="1" parent="1">
          <mxGeometry x="330" y="2945" width="120" height="60" as="geometry" />
        </mxCell>
        <mxCell id="40a5XBOMVrarQBYRQPIO-45" value="" style="edgeStyle=orthogonalEdgeStyle;rounded=0;orthogonalLoop=1;jettySize=auto;html=1;" edge="1" parent="1" source="40a5XBOMVrarQBYRQPIO-42" target="40a5XBOMVrarQBYRQPIO-44">
          <mxGeometry relative="1" as="geometry" />
        </mxCell>
        <mxCell id="40a5XBOMVrarQBYRQPIO-42" value="Me baño" style="whiteSpace=wrap;html=1;rounded=1;" vertex="1" parent="1">
          <mxGeometry x="330" y="3085" width="120" height="60" as="geometry" />
        </mxCell>
        <mxCell id="40a5XBOMVrarQBYRQPIO-47" value="" style="edgeStyle=orthogonalEdgeStyle;rounded=0;orthogonalLoop=1;jettySize=auto;html=1;" edge="1" parent="1" source="40a5XBOMVrarQBYRQPIO-44" target="40a5XBOMVrarQBYRQPIO-46">
          <mxGeometry relative="1" as="geometry" />
        </mxCell>
        <mxCell id="40a5XBOMVrarQBYRQPIO-44" value="Preparo la cena" style="whiteSpace=wrap;html=1;rounded=1;" vertex="1" parent="1">
          <mxGeometry x="330" y="3225" width="120" height="60" as="geometry" />
        </mxCell>
        <mxCell id="40a5XBOMVrarQBYRQPIO-49" value="" style="edgeStyle=orthogonalEdgeStyle;rounded=0;orthogonalLoop=1;jettySize=auto;html=1;" edge="1" parent="1" source="40a5XBOMVrarQBYRQPIO-46" target="40a5XBOMVrarQBYRQPIO-48">
          <mxGeometry relative="1" as="geometry" />
        </mxCell>
        <mxCell id="40a5XBOMVrarQBYRQPIO-46" value="Ceno" style="whiteSpace=wrap;html=1;rounded=1;" vertex="1" parent="1">
          <mxGeometry x="330" y="3365" width="120" height="60" as="geometry" />
        </mxCell>
        <mxCell id="40a5XBOMVrarQBYRQPIO-70" style="edgeStyle=orthogonalEdgeStyle;rounded=0;orthogonalLoop=1;jettySize=auto;html=1;exitX=0.5;exitY=1;exitDx=0;exitDy=0;entryX=0.5;entryY=0;entryDx=0;entryDy=0;" edge="1" parent="1" source="40a5XBOMVrarQBYRQPIO-48" target="40a5XBOMVrarQBYRQPIO-67">
          <mxGeometry relative="1" as="geometry" />
        </mxCell>
        <mxCell id="40a5XBOMVrarQBYRQPIO-48" value="Veo TV" style="whiteSpace=wrap;html=1;rounded=1;" vertex="1" parent="1">
          <mxGeometry x="330" y="3505" width="120" height="60" as="geometry" />
        </mxCell>
        <mxCell id="40a5XBOMVrarQBYRQPIO-53" value="" style="edgeStyle=orthogonalEdgeStyle;rounded=0;orthogonalLoop=1;jettySize=auto;html=1;" edge="1" parent="1" source="40a5XBOMVrarQBYRQPIO-50" target="40a5XBOMVrarQBYRQPIO-52">
          <mxGeometry relative="1" as="geometry" />
        </mxCell>
        <mxCell id="40a5XBOMVrarQBYRQPIO-50" value="Leo" style="whiteSpace=wrap;html=1;rounded=1;" vertex="1" parent="1">
          <mxGeometry x="330" y="3770" width="120" height="60" as="geometry" />
        </mxCell>
        <mxCell id="40a5XBOMVrarQBYRQPIO-76" value="" style="edgeStyle=orthogonalEdgeStyle;rounded=0;orthogonalLoop=1;jettySize=auto;html=1;" edge="1" parent="1" source="40a5XBOMVrarQBYRQPIO-52" target="40a5XBOMVrarQBYRQPIO-75">
          <mxGeometry relative="1" as="geometry" />
        </mxCell>
        <mxCell id="40a5XBOMVrarQBYRQPIO-52" value="Me duermo" style="whiteSpace=wrap;html=1;rounded=1;" vertex="1" parent="1">
          <mxGeometry x="330" y="3910" width="120" height="60" as="geometry" />
        </mxCell>
        <mxCell id="40a5XBOMVrarQBYRQPIO-62" value="" style="edgeStyle=orthogonalEdgeStyle;rounded=0;orthogonalLoop=1;jettySize=auto;html=1;entryX=0;entryY=0.5;entryDx=0;entryDy=0;" edge="1" parent="1" target="40a5XBOMVrarQBYRQPIO-36">
          <mxGeometry relative="1" as="geometry">
            <mxPoint x="350" y="2550" as="sourcePoint" />
            <mxPoint x="290" y="2545" as="targetPoint" />
            <Array as="points">
              <mxPoint x="350" y="2546" />
              <mxPoint x="260" y="2546" />
              <mxPoint x="260" y="2695" />
            </Array>
          </mxGeometry>
        </mxCell>
        <mxCell id="40a5XBOMVrarQBYRQPIO-64" style="edgeStyle=orthogonalEdgeStyle;rounded=0;orthogonalLoop=1;jettySize=auto;html=1;exitX=1;exitY=0.5;exitDx=0;exitDy=0;entryX=1;entryY=0.5;entryDx=0;entryDy=0;" edge="1" parent="1" source="40a5XBOMVrarQBYRQPIO-57" target="40a5XBOMVrarQBYRQPIO-38">
          <mxGeometry relative="1" as="geometry">
            <Array as="points">
              <mxPoint x="530" y="2545" />
              <mxPoint x="530" y="2835" />
            </Array>
          </mxGeometry>
        </mxCell>
        <mxCell id="40a5XBOMVrarQBYRQPIO-57" value="¿Tomare una siesta?" style="rhombus;whiteSpace=wrap;html=1;" vertex="1" parent="1">
          <mxGeometry x="350" y="2510" width="80" height="70" as="geometry" />
        </mxCell>
        <mxCell id="40a5XBOMVrarQBYRQPIO-63" value="Si" style="text;html=1;align=center;verticalAlign=middle;resizable=0;points=[];autosize=1;strokeColor=none;fillColor=none;" vertex="1" parent="1">
          <mxGeometry x="280" y="2510" width="30" height="30" as="geometry" />
        </mxCell>
        <mxCell id="40a5XBOMVrarQBYRQPIO-65" value="No" style="text;html=1;align=center;verticalAlign=middle;resizable=0;points=[];autosize=1;strokeColor=none;fillColor=none;" vertex="1" parent="1">
          <mxGeometry x="440" y="2510" width="40" height="30" as="geometry" />
        </mxCell>
        <mxCell id="40a5XBOMVrarQBYRQPIO-74" style="edgeStyle=orthogonalEdgeStyle;rounded=0;orthogonalLoop=1;jettySize=auto;html=1;exitX=0;exitY=0.5;exitDx=0;exitDy=0;entryX=0;entryY=0.5;entryDx=0;entryDy=0;" edge="1" parent="1" source="40a5XBOMVrarQBYRQPIO-67" target="40a5XBOMVrarQBYRQPIO-50">
          <mxGeometry relative="1" as="geometry">
            <Array as="points">
              <mxPoint x="270" y="3680" />
              <mxPoint x="270" y="3800" />
            </Array>
          </mxGeometry>
        </mxCell>
        <mxCell id="40a5XBOMVrarQBYRQPIO-67" value="¿Leeras?" style="rhombus;whiteSpace=wrap;html=1;" vertex="1" parent="1">
          <mxGeometry x="350" y="3640" width="80" height="80" as="geometry" />
        </mxCell>
        <mxCell id="40a5XBOMVrarQBYRQPIO-71" style="edgeStyle=orthogonalEdgeStyle;rounded=0;orthogonalLoop=1;jettySize=auto;html=1;exitX=1;exitY=0.5;exitDx=0;exitDy=0;entryX=0.992;entryY=0.617;entryDx=0;entryDy=0;entryPerimeter=0;" edge="1" parent="1" source="40a5XBOMVrarQBYRQPIO-67" target="40a5XBOMVrarQBYRQPIO-52">
          <mxGeometry relative="1" as="geometry">
            <Array as="points">
              <mxPoint x="530" y="3680" />
              <mxPoint x="530" y="3947" />
            </Array>
          </mxGeometry>
        </mxCell>
        <mxCell id="40a5XBOMVrarQBYRQPIO-72" value="Si" style="text;html=1;align=center;verticalAlign=middle;resizable=0;points=[];autosize=1;strokeColor=none;fillColor=none;" vertex="1" parent="1">
          <mxGeometry x="295" y="3648" width="30" height="30" as="geometry" />
        </mxCell>
        <mxCell id="40a5XBOMVrarQBYRQPIO-73" value="No" style="text;html=1;align=center;verticalAlign=middle;resizable=0;points=[];autosize=1;strokeColor=none;fillColor=none;" vertex="1" parent="1">
          <mxGeometry x="470" y="3648" width="40" height="30" as="geometry" />
        </mxCell>
        <mxCell id="40a5XBOMVrarQBYRQPIO-75" value="Fin" style="ellipse;whiteSpace=wrap;html=1;rounded=1;" vertex="1" parent="1">
          <mxGeometry x="350" y="4040" width="80" height="80" as="geometry" />
        </mxCell>
      </root>
    </mxGraphModel>
  </diagram>
</mxfile>
